<svg version="1.2" xmlns="http://www.w3.org/2000/svg" viewBox="0 0 274 640" width="86" height="201">
	<title>K</title>
	<style>
		.s0 { fill: #0191c0 } 
	</style>
	<g id="Background">
		<path id="Path 1" class="s0" d="m0 202v156l82.5-0.5 1-73 6.5-0.5c0 53.9 0.2 70.5 0.5 71.8l0.5 2.2c118.1 0 126.1-0.2 126.5-1.5 0.3-0.8-0.2-4.3-1-7.7-0.8-3.5-4.4-20-8-36.8-3.6-16.8-8.1-37.9-10.1-47-1.9-9.1-5.3-25.1-7.6-35.5l-4.1-19c3.4-17.8 6.6-34.7 9.4-49 2.7-14.3 7.4-38.4 10.4-53.5 2.9-15.1 6.7-34.8 8.4-43.8 1.7-8.9 2.9-16.7 2.6-17.2-0.3-0.7-22.3-1-63-1-48.9 0-62.7 0.3-63.3 1.2-0.4 0.7-0.9 17.9-1.2 38.3-0.5 36-0.6 37-2.5 37.3-1.1 0.2-2.5-0.2-3-0.8-0.6-0.7-1.2-15.6-1.5-38.3l-0.5-37.2-82.5-0.5z"/>
	</g>
</svg>