<svg version="1.2" xmlns="http://www.w3.org/2000/svg" viewBox="0 0 274 640" width="86" height="201">
	<title>O</title>
	<style>
		.s0 { fill: #0191be } 
		.s1 { fill: #0192c1 } 
		.s2 { fill: #fffffe } 
	</style>
	<g id="Background">
		<path id="Path 2" class="s0" d="m59.6 47.8c-2.8 0.9-7 3.5-9.5 5.8-2.6 2.3-6 6.5-7.6 9.5l-3 5.4c-0.5 254.1-0.4 265.4 1.2 270 1.1 3.5 3.3 6.6 7.2 10.5 3.7 3.7 7.3 6.1 10.6 7.3 4.6 1.6 11.9 1.7 96.5 1.7 84.3 0 91.9-0.1 96.5-1.7 2.9-1 7.1-3.7 10-6.4 3-2.7 5.9-6.6 7.2-9.7l2.3-5.2-0.5-266.5c-3.9-7.6-7.3-11.8-10-14.4-3.3-2.9-7-5.2-10.5-6.4-5.1-1.6-12-1.7-95.5-1.7-81.7 0.1-90.5 0.3-94.9 1.8z"/>
		<path id="Path 3" fill-rule="evenodd" class="s1" d="m271.7 147c0.2 32.7 0.2 86.5 0 119.5-0.1 33-0.2 6.2-0.2-59.5 0-65.7 0.1-92.7 0.2-60zm-256.7 26.5c0.5 1.1 0.9 3.2 0.9 4.8 0.1 1.5-0.3 2.7-0.9 2.7-0.6 0-1-2.1-0.9-4.8 0-3.5 0.3-4.2 0.9-2.7zm55.8-126.5c0.9 0 2.3 0.5 3.1 1.2 1.1 1 1.4 1 1.7 0.1 0.3-1 8.6-1.3 37.7-1.2 20.4 0.1 36.4 0.3 35.5 0.5-1 0.2-1.6 1-1.5 1.6 0.2 0.8 1.6 1.2 3.3 1 1.6-0.1 3.9-0.4 5.2-0.5 1.3-0.1 2-0.7 1.7-1.5-0.3-0.6 0.2-1.2 1-1.2 0.8 0 1.5 0.9 1.5 2 0 1.1 0.6 2.3 1.4 2.8 0.8 0.4 1.5 1.5 1.7 2.5 0.2 1 0.7 1.8 1.2 1.8 0.4-0.1 1.8-0.1 3.2-0.1 2.3 0 2.4-0.2 1.3-2.5-0.7-1.4-2.1-2.5-3-2.5-1 0-2.2-0.9-2.8-2-0.9-1.8-0.7-2 2.5-2 2.2 0 3.4 0.4 3.3 1.2-0.2 0.7 0.8 1.4 2.2 1.7 2 0.3 2.4 0.1 1.7-1.3-0.6-1.5 2.1-1.6 63.3-1.6v7h6c3.3 0 6 0.4 6 1 0 0.5 0.7 1 1.5 1 0.8 0 1.5 0.7 1.5 1.5 0 0.8 0.6 1.8 1.3 2.1 0.6 0.3 1.5 0.2 1.8-0.2 0.4-0.5 0.9-1.8 1.3-2.9 0.4-1.7 0.1-2-1.9-1.8q-2.5 0.3-2.2-1.1c0.1-0.8 0.6-1.8 1-2.3 0.4-0.4 0.7-0.2 0.7 0.5 0 0.6 0.3 1 0.8 0.7 0.4-0.2 2.3 0.9 7.7 5.3l-2.7 2.6c-1.6 1.4-2.8 3.1-2.8 3.6 0 0.5 0.7 1 1.5 1 0.8 0 2.5-1 3.8-2.1 1.2-1.2 1.6-1.9 1-1.5-0.7 0.3-1.3 0.1-1.3-0.4 0-0.5 0.4-1.2 1-1.5 0.6-0.3 1.2 0.2 1.5 1 0.3 0.8 0.3 2 0 2.5-0.3 0.5 0.4 1.2 1.5 1.5 1.4 0.4 2 1.3 2 3.5 0 1.7 0.6 3.9 1.3 5 1 1.6 0.9 2.2-0.1 3.2-1 1-1.2 25.8-0.7 244.3l1-241 0.3 125.2c0.1 82.8-0.1 125.5-0.8 125.8-0.6 0.3-1.1 2.6-1.1 5.2-0.1 2.7-0.3 3.8-0.5 2.5-0.2-1.2-1.1-2.5-1.9-3-0.9-0.4-2.1-0.1-2.8 0.7-1 1.1-0.9 1.2 0.3 0.5 1-0.7 1.3-0.5 0.9 0.6-0.3 0.8-1.7 1.5-3 1.5-1.4 0-2.4-0.6-2.4-1.5 0-0.8-0.8-1.6-1.7-1.7q-1.8-0.3-1.8 1.7c0 1.1 0.7 2 1.5 2 0.9 0 1.5 0.9 1.5 2.5 0 1.6 0.6 2.5 1.5 2.5 0.8 0 1.7-0.5 2-1 0.3-0.6 1.1-1 1.8-1 0.6 0 1.2 0.7 1.2 1.6 0 0.8-0.8 2.2-1.7 3-1.6 1.2-2 1.2-3.8-0.6-1.1-1.1-2.4-1.8-3-1.5-0.6 0.3-0.4 1.2 0.5 2.2 0.8 1 1.5 2.5 1.5 3.3 0 1.1-0.5 0.9-2-0.8-1.1-1.2-2.4-2-3-1.7-0.6 0.3-1 0.9-1 1.5 0 0.5 0.4 0.8 1 0.5 0.6-0.3 1-0.3 1 0 0 0.3 0.2 1.1 0.5 1.7 0.4 0.9-1 1.8-4 2.8-2.5 0.8-4.5 1.8-4.5 2.2 0 0.5-39.3 0.8-87.3 0.7-69.7 0-88-0.3-91.2-1.4-2.2-0.7-3.4-1.3-2.7-1.4 0.6-0.1 1-0.6 0.7-1.1-0.3-0.6-1.5-1-2.7-1-1.8 0-2 0.2-0.8 0.9 1.3 0.7 1.3 0.9 0 1.4-0.8 0.3-2.4-0.2-3.5-1-1.6-1.2-1.6-1.4-0.2-0.9 0.9 0.3 2 0.1 2.5-0.5 0.4-0.7 0-1.5-1-2-1-0.5-1.8-1.6-1.8-2.4 0-0.8-1.2-1.7-2.7-2-1.9-0.4-3.2-1.5-3.8-3.3-0.6-1.5-2.1-3-3.3-3.5-2-0.6-2.2-0.5-1.1 5.8l-1.7-3.5c-0.9-1.9-1.8-4.9-2-6.5-0.2-1.6-0.5-4.7-0.8-6.8-0.5-2.8-0.2-3.8 0.9-4.2 1.3-0.4 1.5-7.7 1.5-57.5 0-47.2-0.2-57.4-1.4-59.3-0.8-1.2-1.3-3.5-1.3-5 0.1-1.6 1-3.3 2-3.8 0.9-0.5 1.7-1.4 1.7-1.9 0-0.6-0.9-1.2-2-1.5-2-0.5-2-1.3-2-61.5 0-40.4 0.4-61.8 1-63.3 0.9-1.9 1.8-2.2 5.5-2 2.5 0.2 4.5-0.1 4.5-0.7 0-0.6-1.6-1-3.5-1-1.9 0-3.5-0.5-3.5-1 0-0.6 0.6-1 1.3-1 0.8 0.1 0.8-0.4-0.3-1.6-1.4-1.6-1.3-1.6 0.5-0.6 1.1 0.6 2.3 0.8 2.7 0.4 0.5-0.4 0.3-1.3-0.2-2-0.6-0.6-0.8-1.7-0.5-2.2 0.3-0.6 1-0.8 1.5-0.5 0.5 0.3 1-0.2 1-1 0-0.8 0.5-1.5 1-1.5 0.5 0 0.8-0.3 0.6-0.8-0.2-0.4 0.5-0.7 1.5-0.7 1.9 0 1.9 0 0.2 1.5-1.1 0.8-2.2 2.3-2.6 3.2-0.4 1-0.3 1.8 0.3 1.8 0.5 0 1.1 1 1.3 2.2q0.2 2.3 2.5 2.5c1.5 0.2 2.2-0.2 2.2-1.5 0.1-0.9-0.6-2.4-1.5-3.2-0.9-0.8-1.6-2-1.6-2.5 0.1-0.6 1-1.8 2.1-2.8 1.1-0.9 2.1-1.5 2.3-1.2 0.1 0.3 1.9-0.1 4-1 2-0.8 3.5-2 3.2-2.5-0.3-0.6 0.2-1 1-1 0.8 0 1.5-0.5 1.5-1 0-0.6 0.8-1 1.8-1zm-28.8 161c0.7 0 1 19.3 1 56 0 36.7-0.3 56-1 56-0.7 0-1-19.3-1-56 0-36.7 0.3-56 1-56z"/>
		<path id="Path 4" fill-rule="evenodd" class="s0" d="m141 51c0.6 0 1.7 0.7 2.5 1.5 0.8 0.8 2.1 1.5 2.8 1.5 0.9 0 1 1.6 0.5 6.7-0.4 3.8-0.8 68-0.8 142.8 0 74.8 0.3 136.2 0.6 136.5 0.3 0.3 0.9-0.2 1.5-1 0.8-1.3 1-1.3 1.9 0 0.6 1 1-45.4 1-136 0-86.9-0.4-138.8-1-141-0.7-2.7-0.6-4 0.5-5.8 1-1.5 2.7-2.3 5.3-2.6 2.6-0.2 4.2 0.2 5.5 1.5 1 1.2 1.5 2.8 1.2 4.4-0.3 1.4-0.1 2.5 0.5 2.5 0.6 0 1-0.5 1-1 0-0.6 0.4-1 1-1 0.7 0 0.9 46.4 0.5 275.5l-0.3-135c-0.1-88.1-0.6-135.3-1.2-136-0.7-0.7-1.1 44.6-1.3 135.3-0.1 74.9-0.2 137-0.2 137.9 0 1 0.9 1.9 2 2.2 1.1 0.2 2.3 0.8 2.7 1.5 0.4 0.6 0.8 1.4 0.8 1.8 0 0.5-1.1 0.8-2.5 0.8-1.4 0-2.3 0.4-2 1 0.3 0.5-0.1 1-0.7 1.1-1 0-1 0.1 0 0.5 0.6 0.2 1 0.8 0.7 1.4-0.3 0.5 0.4 1 1.5 1 1.1 0 2.2 0.4 2.5 1 0.3 0.5 1.1 1 1.8 1 0.9 0 1-1 0.5-4-0.7-3.6-0.6-4 1.2-4 1.7 0 2 0.7 2 5 0 3-0.4 4.8-1 4.5-0.6-0.3-2.6-0.3-4.5 0-1.9 0.3-3.5 0.8-3.5 1.2 0 0.5 15.8 0.8 35.1 0.8 19.3 0 35.3 0.3 35.5 0.7 0.2 0.5-35.2 0.8-78.6 0.8-43.5 0-79-0.3-79-0.8 0-0.4 16.2-0.7 36-0.7 19.8 0 36-0.3 36-0.8 0-0.4-0.9-0.7-2-0.7-1.1 0-2-0.5-2-1 0-0.6 0.7-1.2 1.5-1.5 0.8-0.3 1.7-1.4 2-2.5 0.3-1.1 0.9-1.8 1.5-1.5 0.6 0.3 1 0 1-0.5 0-0.6-0.7-1-1.5-1-0.8 0-1.8-0.8-2.1-1.8-0.4-1.4-0.8-1.1-1.8 1.3-0.7 1.6-2 3.3-2.9 3.7q-1.7 0.8-0.8 2c0.7 0.9 0.4 1.3-0.8 1.3-1.3 0-1.8-0.9-1.9-3.3-0.2-2.7 0.2-3.3 2.3-3.7 1.4-0.3 2.5-1 2.5-1.5 0-0.6-1.2-1.9-2.8-3-2-1.6-2.3-2.1-1-2 1.7 0 1.8-7.1 1.8-136.3 0-74.9 0.4-138.6 0.8-141.5 0.6-4.6 0.5-5.2-1.1-5.2-0.9 0-1.9-0.5-2.2-1-0.3-0.6-0.3-1.5 0-2 0.4-0.6 1-1 1.5-1zm30.7 6c0.7 0 1.3 1.1 1.3 2.5 0 1.8-0.5 2.5-2 2.5-1.2 0-2.1-0.7-2.2-1.8-0.1-1 0.2-2.2 0.7-2.5 0.5-0.4 1.4-0.7 2.2-0.7zm-22.5 7.5c0.7 0.4 1 46.7 0.9 136.1-0.1 89.5-0.4 135.4-1.1 135.4-0.7 0-1-46-0.9-136.1 0.1-90.4 0.4-135.8 1.1-135.4zm18.3 0l1 272 1-272 1 271 0.5-135.5c0.3-74.5 0.6-118.2 0.7-97 0.2 21.2 0.4 82.7 0.8 235h-3.8c-2 0-3.7-0.5-3.7-1 0-0.6 0.4-1 1-1 0.7 0 1.1-46.1 1.2-135.8zm-122.7 43c0.2 6.6 0.2 17.7 0 24.5-0.2 6.9-0.3 1.5-0.3-12 0-13.4 0.1-19.1 0.3-12.5zm-1.7 44.5c0.5 0 1 1.8 1 4 0 2.2-0.5 4-1 4-0.6 0-1-1.8-1-4 0-2.2 0.4-4 1-4zm15.8 183.3c0.8 0.1 1.6 0.8 1.8 1.5 0.2 0.7-0.5 1.2-1.6 1.2-1.2 0-2.3 0.9-2.5 2-0.5 1.7-0.9 1.9-2.5 1-1.1-0.5-1.9-1.5-1.7-2.2 0.2-0.7 1.1-1.1 2-1 0.9 0.1 1.9-0.4 2.3-1.3 0.4-0.9 1.3-1.4 2.2-1.2zm15.9 15.8c0.7 0 1.5 0.4 1.8 0.9 0.2 0.6-0.1 1.3-0.8 1.7-0.7 0.3-2.4 0.3-3.7-0.1-2.4-0.7-2.4-0.8-0.5-1.6 1.1-0.4 2.5-0.8 3.2-0.9zm166.1 0.2c2.5 0 3.8 0.2 0.7 1l2 0.8c1.4 0.6 0.6 0.8-2.8 0.9-2.6 0-5-0.3-5.2-0.7-0.3-0.4-0.3-1 0-1.4 0.3-0.3 2.7-0.6 5.3-0.6z"/>
		<path id="Path 5" class="s2" d="m154.1 56.7c-1.3 0.4-1.5 19.8-1.3 146.9l0.2 146.4 6.5-0.5c0.4-260.8 0.2-292.2-0.8-292.7-0.6-0.4-1.6-0.7-2.2-0.7-0.6 0-1.7 0.3-2.4 0.6z"/>
	</g>
</svg>