<svg version="1.2" xmlns="http://www.w3.org/2000/svg" viewBox="0 0 274 640" width="86" height="201">
	<title>P2</title>
	<style>
		.s0 { fill: #0091c0 } 
	</style>
	<g id="Background">
		<path id="Path 0" class="s0" d="m148.6 47.5c-0.3 0.8-0.6 70.2-0.6 154.3 0 121.7 0.2 153.1 1.2 154.5 1.2 1.7 4.6 1.8 58.3 1.5l57-0.3 9.5-5v-301l-9.5-5c-108.6-0.5-115.3-0.4-115.9 1z"/>
		<path id="Path 2" class="s0" d="m8.5 47.3c-0.3 0.6-0.4 123.6-0.3 273.2l0.3 272c125.1 0.5 129.1 0.4 130.3-1.2 1-1.5 1.2-55.5 1.2-272.1 0-148.6-0.2-270.9-0.5-271.7-0.4-1.3-8.6-1.5-65.5-1.5-51.1 0-65.2 0.3-65.5 1.3z"/>
	</g>
</svg>